<svg xmlns="http://www.w3.org/2000/svg" >
    <symbol xmlns="http://www.w3.org/2000/svg" id="user" viewBox="0 0 512 512">
        <path d="M256,0c-74.439,0-135,60.561-135,135s60.561,135,135,135s135-60.561,135-135S330.439,0,256,0z"/>
        <path d="M423.966,358.195C387.006,320.667,338.009,300,286,300h-60c-52.008,0-101.006,20.667-137.966,58.195C51.255,395.539,31,444.833,31,497c0,8.284,6.716,15,15,15h420c8.284,0,15-6.716,15-15C481,444.833,460.745,395.539,423.966,358.195z"/>
    </symbol>
    <symbol xmlns="http://www.w3.org/2000/svg" id="plus" viewBox="0 0 20 20">
        <polygon points="20,8 20,12 0,12 0,8"/>
        <polygon points="8,0 12,0 12,20 8,20"/>
    </symbol>
    <symbol xmlns="http://www.w3.org/2000/svg" id="facebook" viewBox="0 0 24 24">
        <path d="m15.997 3.985h2.191v-3.816c-.378-.052-1.678-.169-3.192-.169-3.159 0-5.323 1.987-5.323 5.639v3.361h-3.486v4.266h3.486v10.734h4.274v-10.733h3.345l.531-4.266h-3.877v-2.939c.001-1.233.333-2.077 2.051-2.077z" fill="#DB91AE"/>
    </symbol>
    <symbol xmlns="http://www.w3.org/2000/svg" id="closeModal" viewBox="0 0 16 16">
        <path d="M16,1.6,14.4,0,8,6.4,1.6,0,0,1.6,6.4,8,0,14.4,1.6,16,8,9.6,14.4,16,16,14.4,9.6,8Z"/>
    </symbol>

    <symbol xmlns="http://www.w3.org/2000/svg" id="menuBurger" viewBox="0 0 25 16">
        <path d="M.94,1.88H24.06a.94.94,0,1,0,0-1.88H.94a.94.94,0,1,0,0,1.88ZM24.06,7.06H.94a.94.94,0,1,0,0,1.88H24.06a.94.94,0,1,0,0-1.88Zm0,7.06H.94A.94.94,0,1,0,.94,16H24.06a.94.94,0,1,0,0-1.88Z"/>
    </symbol>
    <symbol xmlns="http://www.w3.org/2000/svg" id="rezart_logo" viewBox="0 0 446.4 267.24">
        <path d="M442.14,240.64,302,.56a1.51,1.51,0,0,0-2.33,0C298.37,1.81,170.74,221,170.74,221l-30.56-51.21.33-1.33S195.32,152,195.32,92.33,135.7,15.52,122.58,15.52H0L20.6,52.76h93.34s47.5-3.56,47.5,40.57-36.19,44.89-42.52,44.89H80.39l70.09,117.71s6.49,11.31,16.94,11.31,14.64-5.43,18.93-11.64S300.63,64.4,300.63,64.4l84.71,141.65L299,156.18,331.19,212l89,51.21s14.13,5.79,22.59-2.33S442.14,240.64,442.14,240.64ZM37.2,158.17,1.33,96.32v149s-.14,14.63,18.27,14.63,17.94-15.3,17.94-15.3Z" />
    </symbol>
    <symbol xmlns="http://www.w3.org/2000/svg" id="playBtn" viewBox="0 0 41.999 41.999">
        <path d="M36.068,20.176l-29-20C6.761-0.035,6.363-0.057,6.035,0.114C5.706,0.287,5.5,0.627,5.5,0.999v40c0,0.372,0.206,0.713,0.535,0.886c0.146,0.076,0.306,0.114,0.465,0.114c0.199,0,0.397-0.06,0.568-0.177l29-20c0.271-0.187,0.432-0.494,0.432-0.823S36.338,20.363,36.068,20.176z"/>
    </symbol>
    <symbol xmlns="http://www.w3.org/2000/svg" id="arrow_down" viewBox="0 0 447.243 447.243">
        <path xmlns="http://www.w3.org/2000/svg" d="M406.101,232.603c-0.978-0.982-2.019-1.899-3.116-2.745c-13.381-8.971-31.276-7.013-42.4,4.64l-88.64,88.32c-4.7,4.695-8.641,10.093-11.68,16l-5.12,9.76v-314.4c0.677-16.099-10.332-30.349-26.08-33.76c-17.445-2.829-33.881,9.019-36.71,26.465c-0.297,1.83-0.434,3.682-0.41,5.535v315.52l-3.2-6.88c-3.183-6.725-7.515-12.843-12.8-18.08l-88.64-88.48c-11.124-11.653-29.019-13.611-42.4-4.64c-14.259,10.441-17.355,30.464-6.914,44.724c0.844,1.152,1.764,2.247,2.754,3.276l160,160c12.49,12.504,32.751,12.515,45.255,0.025c0.008-0.008,0.017-0.017,0.025-0.025l160-160C418.542,265.382,418.577,245.121,406.101,232.603z"/>
    </symbol>
    <symbol xmlns="http://www.w3.org/2000/svg" id="instagram" viewBox="0 0 24 24">
        <path d="m12.004 5.838c-3.403 0-6.158 2.758-6.158 6.158 0 3.403 2.758 6.158 6.158 6.158 3.403 0 6.158-2.758 6.158-6.158 0-3.403-2.758-6.158-6.158-6.158zm0 10.155c-2.209 0-3.997-1.789-3.997-3.997s1.789-3.997 3.997-3.997 3.997 1.789 3.997 3.997c.001 2.208-1.788 3.997-3.997 3.997z" fill="#DB91AE"/>
        <path d="m16.948.076c-2.208-.103-7.677-.098-9.887 0-1.942.091-3.655.56-5.036 1.941-2.308 2.308-2.013 5.418-2.013 9.979 0 4.668-.26 7.706 2.013 9.979 2.317 2.316 5.472 2.013 9.979 2.013 4.624 0 6.22.003 7.855-.63 2.223-.863 3.901-2.85 4.065-6.419.104-2.209.098-7.677 0-9.887-.198-4.213-2.459-6.768-6.976-6.976zm3.495 20.372c-1.513 1.513-3.612 1.378-8.468 1.378-5 0-7.005.074-8.468-1.393-1.685-1.677-1.38-4.37-1.38-8.453 0-5.525-.567-9.504 4.978-9.788 1.274-.045 1.649-.06 4.856-.06l.045.03c5.329 0 9.51-.558 9.761 4.986.057 1.265.07 1.645.07 4.847-.001 4.942.093 6.959-1.394 8.453z" fill="#DB91AE"/>
        <circle cx="18.406" cy="5.595" r="1.439" fill="#DB91AE"/>
    </symbol>
    <symbol xmlns="http://www.w3.org/2000/svg" id="youtube" viewBox="-21 -117 682.66672 682">
        <path d="m626.8125 64.035156c-7.375-27.417968-28.992188-49.03125-56.40625-56.414062-50.082031-13.703125-250.414062-13.703125-250.414062-13.703125s-200.324219 0-250.40625 13.183593c-26.886719 7.375-49.03125 29.519532-56.40625 56.933594-13.179688 50.078125-13.179688 153.933594-13.179688 153.933594s0 104.378906 13.179688 153.933594c7.382812 27.414062 28.992187 49.027344 56.410156 56.410156 50.605468 13.707031 250.410156 13.707031 250.410156 13.707031s200.324219 0 250.40625-13.183593c27.417969-7.378907 49.03125-28.992188 56.414062-56.40625 13.175782-50.082032 13.175782-153.933594 13.175782-153.933594s.527344-104.382813-13.183594-154.460938zm-370.601562 249.878906v-191.890624l166.585937 95.945312zm0 0" fill="#DB91AE"/>
    </symbol>
    <symbol xmlns="http://www.w3.org/2000/svg" id="telegram" viewBox="0 0 24 24">
        <path d="m9.417 15.181-.397 5.584c.568 0 .814-.244 1.109-.537l2.663-2.545 5.518 4.041c1.012.564 1.725.267 1.998-.931l3.622-16.972.001-.001c.321-1.496-.541-2.081-1.527-1.714l-21.29 8.151c-1.453.564-1.431 1.374-.247 1.741l5.443 1.693 12.643-7.911c.595-.394 1.136-.176.691.218z" fill="#DB91AE"/>
    </symbol>
    <symbol xmlns="http://www.w3.org/2000/svg" id="visa" viewBox="0 0 840 600">
        <path d="M60,0h720c33.1,0,60,26.9,60,60v480c0,33.1-26.9,60-60,60H60c-33.1,0-60-26.9-60-60V60C0,26.9,26.9,0,60,0z" fill="#FFFFFF"/>
        <g transform="translate(120.000000, 208.000000)">
            <path fill="#0066B2" d="M212.5,181.4L242.4,3.1h47.7l-29.8,178.3H212.5z M433.2,7.5C423.7,3.9,408.9,0,390.4,0c-47.1,0-80.3,24.2-80.6,58.8c-0.3,25.6,23.7,39.9,41.8,48.4c18.6,8.7,24.8,14.3,24.7,22.1c-0.1,11.9-14.8,17.4-28.5,17.4c-19.1,0-29.2-2.7-44.9-9.3l-6.1-2.8l-6.7,39.9c11.1,5,31.7,9.3,53.1,9.5c50.1,0,82.6-23.9,83-60.9c0.2-20.3-12.5-35.7-40-48.4c-16.7-8.3-26.9-13.7-26.8-22.1c0-7.4,8.6-15.3,27.3-15.3c15.6-0.2,26.9,3.2,35.7,6.8l4.3,2L433.2,7.5z M555.5,3.3h-36.8c-11.4,0-20,3.2-25,14.8l-70.8,163.4h50.1c0,0,8.2-22,10-26.8c5.5,0,54.1,0.1,61.1,0.1c1.4,6.2,5.8,26.7,5.8,26.7h44.3L555.5,3.3z M496.7,118.2c4-10.2,19-49.8,19-49.8c-0.3,0.5,3.9-10.3,6.3-17l3.2,15.4c0,0,9.1,42.5,11,51.5H496.7z M172.5,3.3l-46.7,121.5l-5-24.7c-8.7-28.5-35.8-59.3-66-74.8l42.7,155.9l50.5,0L223.1,3.3H172.5z"/>
            <path fill="#F79510" d="M81.8,0H2.9L2.3,3.9c61.4,15.4,102,52.6,118.8,97.3L104,15.7C101,3.9,92.4,0.4,81.8,0"/>
        </g>
    </symbol>
    <symbol xmlns="http://www.w3.org/2000/svg" id="mastercard" viewBox="0 0 840 600">
        <path fill="#FFFFFF" d="M60,0h720c33.1,0,60,26.9,60,60v480c0,33.1-26.9,60-60,60H60c-33.1,0-60-26.9-60-60V60C0,26.9,26.9,0,60,0z"/>
        <path fill="#231F20" d="M254.7,494.7v-26.8c0.5-8.9-5.8-16.5-14.7-17c-0.9,0-1.4,0-2.3,0c-5.8-0.5-11.6,2.6-15.2,7.5c-3.1-4.9-8.4-8-14.3-7.5c-4.4-0.5-8.9,2.3-11.6,6.3v-5.4h-9.4v42.8h9.4V471c-0.9-5.4,3.1-10.7,8.4-11.2c0.5,0,1.4,0,1.8,0c6.3,0,9.4,4,9.4,11.2v23.6h9.4V471c-0.9-5.4,3.1-10.7,8.4-11.2c0.5,0,1.4,0,1.8,0c6.3,0,9.4,4,9.4,11.2v23.6h9.5V494.7z M393.4,451.9h-15.2v-12.9h-9.4v12.9h-8.4v8.4h8.4V480c0,9.8,4,15.6,14.7,15.6c4,0,8-1.4,11.6-3.1l-2.6-8c-2.6,1.4-5.4,2.3-8,2.3c-4.4,0-6.3-2.6-6.3-7.2V460h15.2v-8.1H393.4z M472.8,451c-4.4,0-8.9,2.3-11.2,6.3v-5.4h-9.4v42.8h9.4v-24.1c0-7.2,3.1-11.2,8.9-11.2c1.8,0,4,0.5,5.8,0.9l2.6-8.9C476.8,451.5,474.5,451,472.8,451L472.8,451z M352.8,455.5c-5.4-3.1-11.2-4.4-17.3-4.4c-10.7,0-17.8,5.4-17.8,13.8c0,7.2,5.4,11.2,14.7,12.4l4.4,0.5c4.9,0.9,7.5,2.3,7.5,4.4c0,3.1-3.5,5.4-9.8,5.4c-4.9,0-10.3-1.4-14.3-4.4l-4.4,7.2c5.4,3.5,12.1,5.8,18.3,5.4c12.4,0,19.6-5.8,19.6-13.8s-5.8-11.6-14.7-12.9l-4.4-0.5c-4-0.5-7.2-1.4-7.2-4c0-2.6,3.1-4.9,8-4.9s9.4,1.4,13.3,3.5L352.8,455.5z M601.1,451c-4.4,0-8.9,2.3-11.2,6.3v-5.4h-9.4v42.8h9.4v-24.1c0-7.2,3.1-11.2,8.9-11.2c1.8,0,4,0.5,5.8,0.9l2.6-8.9C605.7,451.5,603.4,451,601.1,451L601.1,451z M481.7,473.4c-0.5,12.1,8.9,21.9,20.5,22.2c0.9,0,1.4,0,2.3,0c5.4,0.5,11.2-1.4,15.2-4.9l-4.4-7.5c-3.1,2.3-7.2,3.5-11.2,4c-7.5-0.5-12.9-7.2-12.4-14.7c0.5-6.7,5.8-12.1,12.4-12.4c4,0,8,1.4,11.2,4l4.4-7.5c-4.4-3.5-9.8-5.4-15.2-4.9c-12.1-0.9-21.9,8.4-22.7,20.1C481.7,472,481.7,472.5,481.7,473.4L481.7,473.4z M568.6,473.4v-21.4h-9.4v5.4c-3.1-4-8-6.3-13.3-6.3c-12.4,0-22.2,9.8-22.2,22.2s9.8,22.2,22.2,22.2c5.4,0,10.3-2.3,13.3-6.3v5.4h9.4V473.4z M534.3,473.4c0.5-7.2,6.7-12.4,13.8-12.1c7.2,0.5,12.4,6.7,12.1,13.8c-0.5,6.7-5.8,12.1-12.9,12.1c-7.2,0-12.9-5.4-12.9-12.4C534.3,474.3,534.3,473.8,534.3,473.4z M422.4,451c-12.4,0-22.2,10.3-21.9,22.7c0.5,12.4,10.3,22.2,22.7,21.9l0,0c6.3,0.5,12.9-1.8,17.8-5.8l-4.4-6.7c-3.5,2.6-8,4.4-12.4,4.4c-6.3,0.5-12.1-4-12.9-10.3h31.7c0-1.4,0-2.3,0-3.5C442.9,460,434.5,451,422.4,451L422.4,451z M422.4,459.6c5.8,0,10.7,4.4,10.7,10.3l0,0h-22.2C411.2,464,416.1,459.1,422.4,459.6L422.4,459.6z M654.8,473.4v-38.3h-8.9v22.2c-3.1-4-8-6.3-13.3-6.3c-12.4,0-22.2,9.8-22.2,22.2s9.8,22.2,22.2,22.2c5.4,0,10.3-2.3,13.3-6.3v5.4h8.9V473.4z M670.3,488.6c0.5,0,1.4,0,1.8,0.5c0.5,0,0.9,0.5,1.4,0.9c0.5,0.5,0.9,0.9,0.9,1.4c0.5,0.9,0.5,2.3,0,3.1c-0.5,0.5-0.5,0.9-0.9,1.4c-0.5,0.5-0.9,0.9-1.4,0.9c-0.5,0.5-0.9,0.5-1.8,0.5c-1.8,0-3.1-0.9-4-2.6c-0.5-0.9-0.5-2.3,0-3.1c0.5-0.5,0.5-0.9,0.9-1.4c0.5-0.5,0.9-0.9,1.4-0.9C669,488.6,669.8,488.6,670.3,488.6L670.3,488.6z M670.3,496.1c0.5,0,0.9,0,1.4-0.5c0.5,0,0.9-0.5,0.9-0.9c1.4-1.4,1.4-3.1,0-4.4c-0.5-0.5-0.5-0.5-0.9-0.9c-0.5,0-0.9-0.5-1.4-0.5s-0.9,0-1.4,0.5c-0.5,0-0.9,0.5-0.9,0.9c-1.4,1.4-1.4,3.1,0,4.4c0.5,0.5,0.9,0.5,0.9,0.9C669.4,496.1,669.8,496.1,670.3,496.1L670.3,496.1z M670.3,490.7c0.5,0,0.9,0,1.4,0.5c0.5,0.5,0.5,0.5,0.5,0.9s0,0.5-0.5,0.9c-0.5,0.5-0.5,0.5-0.9,0.5l1.4,1.4h-0.9l-1.4-1.4h-0.5v1.4h-0.9v-4L670.3,490.7z M669.4,491.6v0.9h0.9h0.5v-0.5v-0.5h-0.5H669.4z M620.4,473.4c0.5-7.2,6.7-12.4,13.8-12.1c7.2,0.5,12.4,6.7,12.1,13.8c-0.5,6.7-5.8,12.1-12.9,12.1c-7.1,0-12.9-5.4-12.9-12.4C620.4,474.3,620.4,473.8,620.4,473.4z M307.4,473.4v-21.4h-9.4v5.4c-3.1-4-8-6.3-13.3-6.3c-12.4,0-22.2,9.8-22.2,22.2s9.8,22.2,22.2,22.2c5.4,0,10.3-2.3,13.3-6.3v5.4h9.4V473.4z M272.6,473.4c0.5-7.2,6.7-12.4,13.8-12.1c7.2,0.5,12.4,6.7,12.1,13.8c-0.5,6.7-5.8,12.1-12.9,12.1c-7.2,0-12.9-5.4-12.9-12.4C272.6,474.3,272.6,473.8,272.6,473.4L272.6,473.4z"/>
        <rect x="349.7" y="127.4" fill="#FF5F00" width="140.4" height="252.3"/>
        <path fill="#EB001B" d="M358.6,253.6c0-49,22.7-95.8,61.5-126.2c-69.6-54.9-170.8-42.8-225.6,27.1s-42.3,170.3,27.1,225.2c58.4,46,140,46,198.4,0C381.3,349.4,358.6,303.1,358.6,253.6z"/>
        <path fill="#F79E1B" d="M679.6,253.6c0,88.7-71.7,160.5-160.5,160.5c-36.2,0-70.8-12.1-99-34.3c69.6-54.9,81.6-155.6,27.1-225.2c-8-10.3-17-19.2-27.1-27.1c69.6-54.9,170.8-42.8,225.2,26.8C667.6,182.6,679.6,217.4,679.6,253.6L679.6,253.6z"/>
        <path fill="#F79E1B" d="M664.4,352.9v-5.4h2.3v-0.9h-5.4v0.9h2.3v5.4H664.4z M674.7,352.9v-6.3h-1.8l-1.8,4.4l-1.8-4.4h-1.4v6.3h1.4v-4.4l1.8,4h1.4l1.8-4v4.9L674.7,352.9z"/>
    </symbol>
</svg>